<svg width="3859" height="1280" viewBox="0 0 3859 1280" fill="none" xmlns="http://www.w3.org/2000/svg">
<rect width="3859" height="1280" rx="350" fill="black"/>
<path d="M1642.75 547C1640.92 532.7 1637.07 520.967 1631.2 511.8C1624.6 501.9 1616.35 494.75 1606.45 490.35C1596.92 485.583 1584.63 483.2 1569.6 483.2C1544.67 483.2 1527.25 488.517 1517.35 499.15C1507.82 508.683 1503.05 522.433 1503.05 540.4C1503.05 550.667 1504.52 559.1 1507.45 565.7C1510.38 571.933 1514.78 577.067 1520.65 581.1C1529.45 587.333 1543.93 591.367 1564.1 593.2C1584.63 595.033 1601.87 597.967 1615.8 602C1630.1 605.667 1642.57 610.8 1653.2 617.4C1679.97 634.267 1693.35 660.667 1693.35 696.6C1693.35 710.533 1690.6 723.733 1685.1 736.2C1679.6 748.667 1671.9 759.85 1662 769.75C1650.27 781.117 1636.33 789.55 1620.2 795.05C1604.43 800.55 1587.93 803.3 1570.7 803.3C1531.83 803.3 1500.85 792.3 1477.75 770.3C1457.95 750.5 1446.03 724.1 1442 691.1L1443.1 690.55H1491.5C1494.43 709.983 1501.03 724.467 1511.3 734C1525.6 747.2 1544.85 753.8 1569.05 753.8C1592.15 753.8 1610.48 748.483 1624.05 737.85C1637.62 727.217 1644.4 713.467 1644.4 696.6C1644.4 688.9 1643.3 682.3 1641.1 676.8C1639.27 670.933 1635.6 665.8 1630.1 661.4C1617.63 651.867 1594.35 645.817 1560.25 643.25C1525.42 640.317 1499.02 630.233 1481.05 613C1463.08 595.767 1454.1 571.567 1454.1 540.4C1454.1 508.867 1463.82 483.383 1483.25 463.95C1503.78 443.417 1532.38 433.15 1569.05 433.15C1607.18 433.15 1636.88 444.7 1658.15 467.8C1676.85 487.967 1688.22 514.367 1692.25 547H1642.75ZM1882.06 804.95C1861.16 804.95 1843.74 801.65 1829.81 795.05C1815.88 788.083 1803.23 777.267 1791.86 762.6V917.15H1742.91V531.6H1791.86V570.1C1803.23 556.167 1816.79 544.983 1832.56 536.55C1848.33 528.117 1864.83 523.9 1882.06 523.9C1900.76 523.9 1918.54 527.567 1935.41 534.9C1952.64 541.867 1967.49 551.95 1979.96 565.15C1992.79 578.35 2002.69 593.567 2009.66 610.8C2016.99 627.667 2020.66 645.633 2020.66 664.7C2020.66 683.767 2016.99 701.733 2009.66 718.6C2002.69 735.467 1992.79 750.5 1979.96 763.7C1967.49 776.533 1952.64 786.617 1935.41 793.95C1918.54 801.283 1900.76 804.95 1882.06 804.95ZM1882.06 573.95C1869.96 573.95 1858.41 576.333 1847.41 581.1C1836.41 585.5 1826.88 591.917 1818.81 600.35C1810.74 608.783 1804.33 618.683 1799.56 630.05C1794.79 641.05 1792.41 652.6 1792.41 664.7C1792.41 676.8 1794.79 688.35 1799.56 699.35C1804.33 710.35 1810.74 720.067 1818.81 728.5C1826.88 736.933 1836.41 743.533 1847.41 748.3C1858.41 753.067 1869.96 755.45 1882.06 755.45C1894.16 755.45 1905.71 753.067 1916.71 748.3C1927.71 743.533 1937.24 736.933 1945.31 728.5C1953.38 720.067 1959.61 710.35 1964.01 699.35C1968.78 688.35 1971.16 676.8 1971.16 664.7C1971.16 652.6 1968.78 641.05 1964.01 630.05C1959.61 618.683 1953.38 608.783 1945.31 600.35C1937.24 591.917 1927.71 585.5 1916.71 581.1C1905.71 576.333 1894.16 573.95 1882.06 573.95ZM2292.76 800V758.2C2281.03 771.767 2267.46 782.583 2252.06 790.65C2236.66 798.717 2220.34 802.75 2203.11 802.75C2184.04 802.75 2166.08 799.267 2149.21 792.3C2132.71 785.333 2118.04 775.433 2105.21 762.6C2092.38 750.133 2082.29 735.467 2074.96 718.6C2067.99 701.367 2064.51 683.4 2064.51 664.7C2064.51 646 2067.99 628.217 2074.96 611.35C2082.29 594.117 2092.38 579.083 2105.21 566.25C2118.04 553.417 2132.71 543.517 2149.21 536.55C2166.08 529.583 2184.04 526.1 2203.11 526.1C2220.71 526.1 2237.21 529.767 2252.61 537.1C2268.38 544.433 2281.76 554.7 2292.76 567.9V531.6H2342.26V800H2292.76ZM2203.11 575.05C2191.01 575.05 2179.28 577.433 2167.91 582.2C2156.91 586.6 2147.38 592.833 2139.31 600.9C2131.24 608.967 2124.83 618.683 2120.06 630.05C2115.66 641.05 2113.46 652.6 2113.46 664.7C2113.46 676.8 2115.66 688.35 2120.06 699.35C2124.83 710.35 2131.24 719.883 2139.31 727.95C2147.38 736.017 2156.91 742.433 2167.91 747.2C2179.28 751.6 2191.01 753.8 2203.11 753.8C2215.21 753.8 2226.76 751.6 2237.76 747.2C2248.76 742.433 2258.29 736.017 2266.36 727.95C2274.43 719.883 2280.66 710.35 2285.06 699.35C2289.83 688.35 2292.21 676.8 2292.21 664.7C2292.21 652.6 2289.83 641.05 2285.06 630.05C2280.66 618.683 2274.43 608.967 2266.36 600.9C2258.29 592.833 2248.76 586.6 2237.76 582.2C2226.76 577.433 2215.21 575.05 2203.11 575.05ZM2519.76 577.8C2510.96 573.767 2503.08 571.75 2496.11 571.75C2481.44 571.75 2469.34 576.883 2459.81 587.15C2449.54 598.15 2444.41 610.8 2444.41 625.1V800H2397.11V625.1C2397.11 605.3 2402.06 587.15 2411.96 570.65C2422.23 554.15 2436.16 541.317 2453.76 532.15C2466.96 525.917 2481.08 522.8 2496.11 522.8C2508.21 522.8 2519.76 525 2530.76 529.4C2541.76 533.8 2553.31 540.95 2565.41 550.85L2519.76 577.8ZM2736.43 800L2652.83 698.25V800H2604.43V434.25H2652.83V592.1L2727.63 521.7H2799.68L2669.33 642.7L2800.23 800H2736.43ZM2987.5 798.35V775.25C2980.17 782.95 2970.82 789.367 2959.45 794.5C2948.45 799.633 2937.45 802.2 2926.45 802.2C2911.78 802.2 2897.67 799.45 2884.1 793.95C2870.9 788.083 2859.17 780.017 2848.9 769.75C2839 759.483 2831.12 747.75 2825.25 734.55C2819.75 720.983 2817 706.683 2817 691.65V525H2865.4V691.65C2865.4 708.517 2871.45 723 2883.55 735.1C2895.65 747.2 2909.95 753.25 2926.45 753.25C2934.15 753.25 2941.85 751.6 2949.55 748.3C2957.25 745 2963.85 740.6 2969.35 735.1C2981.45 723 2987.5 708.517 2987.5 691.65V525H3035.35V798.35H2987.5ZM3223.75 606.95C3222.65 600.35 3220.26 594.117 3216.6 588.25C3209.63 576.15 3195.88 570.1 3175.35 570.1C3164.35 570.1 3155.91 571.383 3150.05 573.95C3142.35 576.883 3136.48 581.1 3132.45 586.6C3128.78 592.1 3126.95 598.15 3126.95 604.75C3126.95 612.817 3129.88 620.15 3135.75 626.75C3141.98 633.717 3152.06 637.383 3166 637.75C3190.56 638.85 3210.36 641.783 3225.4 646.55C3240.8 651.317 3252.53 659.567 3260.6 671.3C3269.03 683.033 3273.25 699.533 3273.25 720.8C3273.25 742.433 3265 761.133 3248.5 776.9C3240.43 784.6 3230.9 790.833 3219.9 795.6C3209.26 800.367 3198.08 802.75 3186.35 802.75H3178.1C3148.76 802.75 3125.11 794.317 3107.15 777.45C3092.48 763.883 3083.31 744.817 3079.65 720.25H3128.6C3130.43 729.05 3134.1 736.2 3139.6 741.7C3148.03 749.767 3159.76 753.8 3174.8 753.8C3178.83 753.8 3181.76 753.617 3183.6 753.25C3196.43 752.517 3206.51 749.033 3213.85 742.8C3221.18 736.2 3224.85 728.133 3224.85 718.6C3224.85 705.4 3220.81 696.783 3212.75 692.75C3204.68 688.717 3189.1 686.7 3166 686.7C3137.03 686.7 3114.85 677.533 3099.45 659.2C3086.98 645.267 3080.75 627.667 3080.75 606.4C3080.75 601.633 3080.93 597.967 3081.3 595.4C3084.23 571.567 3093.95 553.417 3110.45 540.95C3127.31 528.117 3149.5 521.7 3177 521.7C3197.16 521.7 3214.76 526.1 3229.8 534.9C3240.43 541.5 3249.6 550.667 3257.3 562.4C3264.63 574.133 3269.4 588.8 3271.6 606.4L3270.5 606.95H3223.75Z" fill="white"/>
<path d="M646 301C646 557.231 699.5 634 979 634" stroke="white" stroke-width="100"/>
<path d="M646 978C646 713.305 590.733 634 302 634" stroke="white" stroke-width="100"/>
</svg>
